<mxfile host="app.diagrams.net" modified="2023-07-25T17:52:29.980Z" agent="Mozilla/5.0 (Windows NT 10.0; Win64; x64) AppleWebKit/537.36 (KHTML, like Gecko) Chrome/115.0.0.0 Safari/537.36" etag="5F-eJXXq4mNRRe4gsQQ3" version="21.5.2" type="device">
  <diagram name="Page-1" id="7apyFMibFnpHuz74gdhJ">
    <mxGraphModel dx="1235" dy="2301" grid="1" gridSize="10" guides="1" tooltips="1" connect="1" arrows="1" fold="1" page="1" pageScale="1" pageWidth="1200" pageHeight="1600" math="0" shadow="0">
      <root>
        <mxCell id="0" />
        <mxCell id="1" parent="0" />
        <mxCell id="QK0WZZZ_57yccsOmfggE-1" value="" style="rounded=0;whiteSpace=wrap;html=1;" vertex="1" parent="1">
          <mxGeometry x="140" y="50" width="270" height="540" as="geometry" />
        </mxCell>
        <mxCell id="QK0WZZZ_57yccsOmfggE-2" value="Main Program&lt;br&gt;" style="text;html=1;strokeColor=none;fillColor=none;align=center;verticalAlign=middle;whiteSpace=wrap;rounded=0;" vertex="1" parent="1">
          <mxGeometry x="245" y="70" width="60" height="30" as="geometry" />
        </mxCell>
        <mxCell id="QK0WZZZ_57yccsOmfggE-3" value="" style="rounded=0;whiteSpace=wrap;html=1;" vertex="1" parent="1">
          <mxGeometry x="190" y="240" width="180" height="310" as="geometry" />
        </mxCell>
        <mxCell id="QK0WZZZ_57yccsOmfggE-4" value="Pipe Pool" style="text;html=1;strokeColor=none;fillColor=none;align=center;verticalAlign=middle;whiteSpace=wrap;rounded=0;" vertex="1" parent="1">
          <mxGeometry x="250" y="260" width="60" height="30" as="geometry" />
        </mxCell>
        <mxCell id="QK0WZZZ_57yccsOmfggE-5" value="" style="rounded=0;whiteSpace=wrap;html=1;" vertex="1" parent="1">
          <mxGeometry x="310" y="130" width="60" height="60" as="geometry" />
        </mxCell>
        <mxCell id="QK0WZZZ_57yccsOmfggE-6" value="Querying&lt;br&gt;Pipe" style="text;html=1;strokeColor=none;fillColor=none;align=center;verticalAlign=middle;whiteSpace=wrap;rounded=0;" vertex="1" parent="1">
          <mxGeometry x="310" y="145" width="60" height="30" as="geometry" />
        </mxCell>
        <mxCell id="QK0WZZZ_57yccsOmfggE-10" value="" style="rounded=0;whiteSpace=wrap;html=1;" vertex="1" parent="1">
          <mxGeometry x="250" y="340" width="60" height="60" as="geometry" />
        </mxCell>
        <mxCell id="QK0WZZZ_57yccsOmfggE-11" value="Pipe ID 1" style="text;html=1;strokeColor=none;fillColor=none;align=center;verticalAlign=middle;whiteSpace=wrap;rounded=0;" vertex="1" parent="1">
          <mxGeometry x="250" y="355" width="60" height="30" as="geometry" />
        </mxCell>
        <mxCell id="QK0WZZZ_57yccsOmfggE-12" value="" style="rounded=0;whiteSpace=wrap;html=1;" vertex="1" parent="1">
          <mxGeometry x="250" y="440" width="60" height="60" as="geometry" />
        </mxCell>
        <mxCell id="QK0WZZZ_57yccsOmfggE-13" value="Pipe ID 2" style="text;html=1;strokeColor=none;fillColor=none;align=center;verticalAlign=middle;whiteSpace=wrap;rounded=0;" vertex="1" parent="1">
          <mxGeometry x="250" y="455" width="60" height="30" as="geometry" />
        </mxCell>
        <mxCell id="QK0WZZZ_57yccsOmfggE-15" value="" style="rounded=0;whiteSpace=wrap;html=1;" vertex="1" parent="1">
          <mxGeometry x="880" y="-40" width="180" height="280" as="geometry" />
        </mxCell>
        <mxCell id="QK0WZZZ_57yccsOmfggE-16" value="In-Game Program&lt;br&gt;ID 1" style="text;html=1;strokeColor=none;fillColor=none;align=center;verticalAlign=middle;whiteSpace=wrap;rounded=0;" vertex="1" parent="1">
          <mxGeometry x="920" y="-25" width="100" height="30" as="geometry" />
        </mxCell>
        <mxCell id="QK0WZZZ_57yccsOmfggE-19" value="" style="rounded=0;whiteSpace=wrap;html=1;" vertex="1" parent="1">
          <mxGeometry x="940" y="30" width="60" height="60" as="geometry" />
        </mxCell>
        <mxCell id="QK0WZZZ_57yccsOmfggE-20" value="Querying&lt;br&gt;Pipe" style="text;html=1;strokeColor=none;fillColor=none;align=center;verticalAlign=middle;whiteSpace=wrap;rounded=0;" vertex="1" parent="1">
          <mxGeometry x="940" y="45" width="60" height="30" as="geometry" />
        </mxCell>
        <mxCell id="QK0WZZZ_57yccsOmfggE-23" value="" style="rounded=0;whiteSpace=wrap;html=1;" vertex="1" parent="1">
          <mxGeometry x="940" y="145" width="60" height="60" as="geometry" />
        </mxCell>
        <mxCell id="QK0WZZZ_57yccsOmfggE-24" value="Pipe ID 1" style="text;html=1;strokeColor=none;fillColor=none;align=center;verticalAlign=middle;whiteSpace=wrap;rounded=0;" vertex="1" parent="1">
          <mxGeometry x="940" y="160" width="60" height="30" as="geometry" />
        </mxCell>
        <mxCell id="QK0WZZZ_57yccsOmfggE-28" value="" style="rounded=0;whiteSpace=wrap;html=1;" vertex="1" parent="1">
          <mxGeometry x="880" y="340" width="180" height="280" as="geometry" />
        </mxCell>
        <mxCell id="QK0WZZZ_57yccsOmfggE-29" value="In-Game Program&lt;br&gt;ID 1" style="text;html=1;strokeColor=none;fillColor=none;align=center;verticalAlign=middle;whiteSpace=wrap;rounded=0;" vertex="1" parent="1">
          <mxGeometry x="920" y="355" width="100" height="30" as="geometry" />
        </mxCell>
        <mxCell id="QK0WZZZ_57yccsOmfggE-30" value="" style="rounded=0;whiteSpace=wrap;html=1;" vertex="1" parent="1">
          <mxGeometry x="940" y="410" width="60" height="60" as="geometry" />
        </mxCell>
        <mxCell id="QK0WZZZ_57yccsOmfggE-31" value="Querying&lt;br&gt;Pipe" style="text;html=1;strokeColor=none;fillColor=none;align=center;verticalAlign=middle;whiteSpace=wrap;rounded=0;" vertex="1" parent="1">
          <mxGeometry x="940" y="425" width="60" height="30" as="geometry" />
        </mxCell>
        <mxCell id="QK0WZZZ_57yccsOmfggE-32" value="" style="rounded=0;whiteSpace=wrap;html=1;" vertex="1" parent="1">
          <mxGeometry x="940" y="525" width="60" height="60" as="geometry" />
        </mxCell>
        <mxCell id="QK0WZZZ_57yccsOmfggE-33" value="Pipe ID 2" style="text;html=1;strokeColor=none;fillColor=none;align=center;verticalAlign=middle;whiteSpace=wrap;rounded=0;" vertex="1" parent="1">
          <mxGeometry x="940" y="540" width="60" height="30" as="geometry" />
        </mxCell>
        <mxCell id="QK0WZZZ_57yccsOmfggE-34" value="" style="endArrow=classic;html=1;rounded=0;" edge="1" parent="1" source="QK0WZZZ_57yccsOmfggE-20" target="QK0WZZZ_57yccsOmfggE-6">
          <mxGeometry width="50" height="50" relative="1" as="geometry">
            <mxPoint x="620" y="160" as="sourcePoint" />
            <mxPoint x="830" y="310" as="targetPoint" />
          </mxGeometry>
        </mxCell>
        <mxCell id="QK0WZZZ_57yccsOmfggE-35" value="" style="endArrow=classic;html=1;rounded=0;" edge="1" parent="1" source="QK0WZZZ_57yccsOmfggE-31" target="QK0WZZZ_57yccsOmfggE-6">
          <mxGeometry width="50" height="50" relative="1" as="geometry">
            <mxPoint x="950" y="70" as="sourcePoint" />
            <mxPoint x="370" y="160" as="targetPoint" />
          </mxGeometry>
        </mxCell>
        <mxCell id="QK0WZZZ_57yccsOmfggE-36" value="" style="endArrow=classic;html=1;rounded=0;entryX=1;entryY=0.25;entryDx=0;entryDy=0;exitX=0;exitY=0.25;exitDx=0;exitDy=0;" edge="1" parent="1" source="QK0WZZZ_57yccsOmfggE-24" target="QK0WZZZ_57yccsOmfggE-11">
          <mxGeometry width="50" height="50" relative="1" as="geometry">
            <mxPoint x="950" y="437" as="sourcePoint" />
            <mxPoint x="380" y="183" as="targetPoint" />
          </mxGeometry>
        </mxCell>
        <mxCell id="QK0WZZZ_57yccsOmfggE-37" value="" style="endArrow=classic;html=1;rounded=0;exitX=1;exitY=0.75;exitDx=0;exitDy=0;entryX=0;entryY=0.75;entryDx=0;entryDy=0;" edge="1" parent="1" source="QK0WZZZ_57yccsOmfggE-11" target="QK0WZZZ_57yccsOmfggE-24">
          <mxGeometry width="50" height="50" relative="1" as="geometry">
            <mxPoint x="950" y="178" as="sourcePoint" />
            <mxPoint x="990" y="250" as="targetPoint" />
          </mxGeometry>
        </mxCell>
        <mxCell id="QK0WZZZ_57yccsOmfggE-38" value="" style="endArrow=classic;html=1;rounded=0;exitX=0;exitY=0.25;exitDx=0;exitDy=0;entryX=1;entryY=0.25;entryDx=0;entryDy=0;" edge="1" parent="1" source="QK0WZZZ_57yccsOmfggE-33" target="QK0WZZZ_57yccsOmfggE-13">
          <mxGeometry width="50" height="50" relative="1" as="geometry">
            <mxPoint x="940" y="275" as="sourcePoint" />
            <mxPoint x="310" y="460" as="targetPoint" />
          </mxGeometry>
        </mxCell>
        <mxCell id="QK0WZZZ_57yccsOmfggE-39" value="" style="endArrow=classic;html=1;rounded=0;exitX=1.02;exitY=0.623;exitDx=0;exitDy=0;entryX=0;entryY=0.75;entryDx=0;entryDy=0;exitPerimeter=0;" edge="1" parent="1" source="QK0WZZZ_57yccsOmfggE-13" target="QK0WZZZ_57yccsOmfggE-33">
          <mxGeometry width="50" height="50" relative="1" as="geometry">
            <mxPoint x="310" y="485" as="sourcePoint" />
            <mxPoint x="940" y="290" as="targetPoint" />
          </mxGeometry>
        </mxCell>
      </root>
    </mxGraphModel>
  </diagram>
</mxfile>
